<svg xmlns="http://www.w3.org/2000/svg" xmlns:xlink="http://www.w3.org/1999/xlink" width="768" zoomAndPan="magnify" viewBox="0 0 576 227.249992" height="303" preserveAspectRatio="xMidYMid meet" version="1.0"><defs><clipPath id="9ee6e75b52"><path d="M 4.238281 61.226562 L 50.984375 61.226562 L 50.984375 107.3125 L 4.238281 107.3125 Z M 4.238281 61.226562 " clip-rule="nonzero"/></clipPath><clipPath id="757c2056c0"><path d="M 27.695312 107.277344 C 40.402344 107.277344 50.703125 96.976562 50.703125 84.269531 C 50.703125 71.5625 40.402344 61.261719 27.695312 61.261719 C 14.984375 61.261719 4.683594 71.5625 4.683594 84.269531 C 4.683594 96.976562 14.984375 107.277344 27.695312 107.277344 " clip-rule="nonzero"/></clipPath><clipPath id="e29e817058"><path d="M 119.453125 118.507812 L 166 118.507812 L 166 165 L 119.453125 165 Z M 119.453125 118.507812 " clip-rule="nonzero"/></clipPath><clipPath id="254cf22cc6"><path d="M 142.738281 118.78125 C 130.03125 118.78125 119.730469 129.082031 119.730469 141.792969 C 119.730469 154.5 130.03125 164.800781 142.738281 164.800781 C 155.449219 164.800781 165.75 154.5 165.75 141.792969 C 165.75 129.082031 155.449219 118.78125 142.738281 118.78125 " clip-rule="nonzero"/></clipPath><clipPath id="4716d86b5b"><path d="M 4.238281 61.226562 L 108.261719 61.226562 L 108.261719 222.527344 L 4.238281 222.527344 Z M 4.238281 61.226562 " clip-rule="nonzero"/></clipPath><clipPath id="97f0ba38f7"><path d="M 85.214844 176.304688 C 64.824219 175.378906 52.144531 165.167969 50.703125 141.792969 C 52.214844 122.691406 62.582031 110.328125 85.214844 107.277344 C 97.925781 107.277344 108.226562 96.976562 108.226562 84.269531 C 108.226562 71.5625 97.925781 61.261719 85.214844 61.261719 C 72.507812 61.261719 62.207031 71.5625 62.207031 84.269531 C 61.28125 104.660156 51.070312 117.339844 27.695312 118.78125 C 14.984375 118.78125 4.683594 129.082031 4.683594 141.792969 C 4.683594 154.5 14.984375 164.800781 27.695312 164.800781 C 46.792969 166.304688 59.15625 176.679688 62.207031 199.316406 C 62.207031 212.023438 72.507812 222.324219 85.214844 222.324219 C 97.925781 222.324219 108.226562 212.023438 108.226562 199.316406 C 108.226562 186.605469 97.925781 176.304688 85.214844 176.304688 " clip-rule="nonzero"/></clipPath><clipPath id="0096376310"><path d="M 62.175781 3.292969 L 166 3.292969 L 166 165 L 62.175781 165 Z M 62.175781 3.292969 " clip-rule="nonzero"/></clipPath><clipPath id="62527a36b5"><path d="M 165.75 84.269531 C 165.75 71.5625 155.449219 61.261719 142.738281 61.261719 C 123.640625 59.757812 111.277344 49.382812 108.226562 26.746094 C 108.226562 14.039062 97.925781 3.738281 85.214844 3.738281 C 72.507812 3.738281 62.207031 14.039062 62.207031 26.746094 C 62.207031 39.453125 72.507812 49.753906 85.214844 49.753906 C 105.609375 50.683594 118.289062 60.886719 119.730469 84.269531 C 118.804688 104.660156 108.59375 117.339844 85.214844 118.78125 C 72.507812 118.78125 62.207031 129.082031 62.207031 141.792969 C 62.207031 154.5 72.507812 164.800781 85.214844 164.800781 C 97.925781 164.800781 108.226562 154.5 108.226562 141.792969 C 109.734375 122.691406 120.105469 110.328125 142.738281 107.277344 C 155.449219 107.277344 165.75 96.976562 165.75 84.269531 " clip-rule="nonzero"/></clipPath><clipPath id="2f4b5d99eb"><path d="M 195.855469 119.085938 L 245.773438 119.085938 L 245.773438 129.640625 L 195.855469 129.640625 Z M 215.035156 129.640625 L 226.503906 129.640625 L 226.503906 183.320312 L 215.035156 183.320312 Z M 215.035156 129.640625 " clip-rule="nonzero"/></clipPath><clipPath id="d5755f6253"><path d="M 240 136.597656 L 287.886719 136.597656 L 287.886719 184.199219 L 240 184.199219 Z M 240 136.597656 " clip-rule="nonzero"/></clipPath><clipPath id="a5de04bd59"><path d="M 264.035156 146.894531 C 256.328125 146.894531 251.285156 151.9375 251.285156 160.476562 C 251.285156 169.011719 256.328125 174.050781 264.035156 174.050781 C 271.652344 174.050781 276.699219 169.003906 276.699219 160.46875 C 276.699219 151.929688 271.652344 146.894531 264.035156 146.894531 M 287.710938 160.566406 L 287.710938 183.320312 L 276.699219 183.320312 L 276.699219 178.917969 C 274.496094 181.765625 269.816406 184.148438 263.117188 184.148438 C 249.8125 184.148438 240.265625 174.605469 240.265625 160.386719 C 240.265625 146.257812 249.8125 136.800781 263.9375 136.800781 C 278.164062 136.800781 287.703125 146.347656 287.703125 160.566406 " clip-rule="nonzero"/></clipPath><clipPath id="f4225a986c"><path d="M 291.570312 136.597656 L 328.691406 136.597656 L 328.691406 183.917969 L 291.570312 183.917969 Z M 291.570312 136.597656 " clip-rule="nonzero"/></clipPath><clipPath id="4c4ef55b99"><path d="M 328.539062 169.460938 C 328.539062 178.820312 321.109375 183.867188 310.644531 183.867188 C 300.917969 183.867188 294.675781 179.464844 291.828125 176.890625 L 297.707031 168.265625 C 301.5625 171.933594 306.421875 173.773438 310.921875 173.773438 C 314.683594 173.773438 317.53125 172.488281 317.53125 169.828125 C 317.53125 161.933594 292.570312 166.800781 292.570312 150.011719 C 292.570312 141.570312 298.902344 136.703125 309.269531 136.703125 C 318.351562 136.703125 324.316406 140.375 328.355469 143.679688 L 322.484375 152.214844 C 317.621094 148.179688 312.851562 146.804688 309.089844 146.804688 C 305.507812 146.804688 303.582031 148 303.582031 149.832031 C 303.582031 156.527344 328.539062 152.3125 328.539062 169.46875 " clip-rule="nonzero"/></clipPath><clipPath id="facd729022"><path d="M 332.371094 119.03125 L 374.875 119.03125 L 374.875 183.351562 L 332.371094 183.351562 Z M 332.371094 119.03125 " clip-rule="nonzero"/></clipPath><clipPath id="e5d7a8895a"><path d="M 343.410156 140.652344 C 346.070312 138.175781 349.832031 136.613281 354.972656 136.613281 C 368.644531 136.613281 374.613281 147.992188 374.613281 155.976562 L 374.613281 183.320312 L 363.601562 183.320312 L 363.601562 156.253906 C 363.601562 149.734375 358.832031 146.804688 353.507812 146.804688 C 348.1875 146.804688 343.417969 149.742188 343.417969 156.253906 L 343.417969 183.320312 L 332.398438 183.320312 L 332.398438 119.085938 L 343.410156 119.085938 Z M 343.410156 140.652344 " clip-rule="nonzero"/></clipPath><clipPath id="a013b28409"><path d="M 382.867188 155.332031 L 405.71875 155.332031 L 405.71875 163.59375 L 382.867188 163.59375 Z M 382.867188 155.332031 " clip-rule="nonzero"/></clipPath><clipPath id="68dc28e0fb"><path d="M 325.417969 192.292969 L 338.242188 192.292969 L 338.242188 194.523438 L 325.417969 194.523438 Z M 325.417969 194.523438 L 327.957031 194.523438 L 327.957031 200.964844 L 325.417969 200.964844 Z M 325.417969 200.964844 L 336.121094 200.964844 L 336.121094 203.027344 L 325.417969 203.027344 Z M 325.417969 203.027344 L 327.957031 203.027344 L 327.957031 210.332031 L 325.417969 210.332031 Z M 325.417969 210.332031 L 338.527344 210.332031 L 338.527344 212.558594 L 325.417969 212.558594 Z M 325.417969 210.332031 " clip-rule="nonzero"/></clipPath><clipPath id="e2a31dce2b"><path d="M 339.539062 192.269531 L 355.390625 192.269531 L 355.390625 212.585938 L 339.539062 212.585938 Z M 339.539062 192.269531 " clip-rule="nonzero"/></clipPath><clipPath id="2e450fa577"><path d="M 354.464844 192.292969 L 348.785156 201.570312 L 355.289062 212.558594 L 352.410156 212.558594 L 347.296875 203.925781 L 341.964844 212.558594 L 339.613281 212.558594 L 346.101562 202.074219 L 340.320312 192.292969 L 343.164062 192.292969 L 347.601562 199.785156 L 352.15625 192.292969 Z M 354.464844 192.292969 " clip-rule="nonzero"/></clipPath><clipPath id="49bbc348e3"><path d="M 357.847656 192.269531 L 371.6875 192.269531 L 371.6875 212.585938 L 357.847656 212.585938 Z M 357.847656 192.269531 " clip-rule="nonzero"/></clipPath><clipPath id="c0810bd2bb"><path d="M 360.429688 202.230469 L 365.09375 202.230469 C 366.292969 202.230469 367.253906 201.871094 367.988281 201.152344 C 368.722656 200.433594 369.085938 199.484375 369.085938 198.3125 C 369.085938 197.304688 368.757812 196.398438 368.109375 195.613281 C 367.457031 194.828125 366.507812 194.417969 365.273438 194.417969 L 360.429688 194.417969 Z M 360.429688 212.566406 L 357.890625 212.566406 L 357.890625 192.292969 L 365.074219 192.292969 C 367.324219 192.292969 368.976562 192.90625 370.050781 194.125 C 371.128906 195.34375 371.652344 196.742188 371.652344 198.304688 C 371.652344 200.046875 371.066406 201.488281 369.910156 202.625 C 368.75 203.761719 367.226562 204.328125 365.34375 204.328125 L 360.429688 204.328125 Z M 360.429688 212.566406 " clip-rule="nonzero"/></clipPath><clipPath id="824f107668"><path d="M 374.816406 192.269531 L 389.550781 192.269531 L 389.550781 212.585938 L 374.816406 212.585938 Z M 374.816406 192.269531 " clip-rule="nonzero"/></clipPath><clipPath id="9d8ea88bf9"><path d="M 377.273438 201.722656 L 382.574219 201.722656 C 383.96875 201.722656 385.007812 201.355469 385.699219 200.613281 C 386.386719 199.875 386.730469 198.96875 386.730469 197.910156 C 386.730469 196.847656 386.363281 196.011719 385.636719 195.410156 C 384.914062 194.8125 383.992188 194.523438 382.878906 194.523438 L 377.273438 194.523438 Z M 389.480469 212.558594 L 386.820312 212.558594 L 383.082031 203.785156 L 377.273438 203.785156 L 377.273438 212.558594 L 374.894531 212.558594 L 374.894531 192.292969 L 382.886719 192.292969 C 385.054688 192.292969 386.660156 192.886719 387.707031 194.066406 C 388.753906 195.246094 389.277344 196.546875 389.277344 197.945312 C 389.277344 199.023438 388.988281 200.0625 388.402344 201.046875 C 387.820312 202.035156 386.855469 202.746094 385.511719 203.171875 Z M 389.480469 212.558594 " clip-rule="nonzero"/></clipPath><clipPath id="80627a1b52"><path d="M 393.53125 192.292969 L 406.359375 192.292969 L 406.359375 194.523438 L 393.53125 194.523438 Z M 393.53125 194.523438 L 396.074219 194.523438 L 396.074219 200.964844 L 393.53125 200.964844 Z M 393.53125 200.964844 L 404.242188 200.964844 L 404.242188 203.027344 L 393.53125 203.027344 Z M 393.53125 203.027344 L 396.074219 203.027344 L 396.074219 210.332031 L 393.53125 210.332031 Z M 393.53125 210.332031 L 406.644531 210.332031 L 406.644531 212.558594 L 393.53125 212.558594 Z M 393.53125 210.332031 " clip-rule="nonzero"/></clipPath><clipPath id="083b652a38"><path d="M 407.855469 191.820312 L 423.820312 191.820312 L 423.820312 213 L 407.855469 213 Z M 407.855469 191.820312 " clip-rule="nonzero"/></clipPath><clipPath id="7f791afc6f"><path d="M 407.964844 207.199219 L 410.253906 206.675781 C 411.171875 209.441406 413.167969 210.820312 416.242188 210.820312 C 417.847656 210.820312 419.050781 210.472656 419.867188 209.792969 C 420.683594 209.113281 421.085938 208.203125 421.085938 207.058594 C 421.085938 206.191406 420.777344 205.496094 420.160156 204.972656 C 419.539062 204.449219 418.828125 204.082031 418.011719 203.882812 L 413.953125 202.878906 C 412.90625 202.609375 412.046875 202.289062 411.375 201.90625 C 410.703125 201.527344 410.140625 200.9375 409.671875 200.144531 C 409.199219 199.351562 408.976562 198.445312 408.976562 197.421875 C 408.976562 195.726562 409.609375 194.378906 410.890625 193.371094 C 412.167969 192.363281 413.804688 191.875 415.808594 191.875 C 419.492188 191.875 421.914062 193.542969 423.066406 196.882812 L 420.765625 197.566406 C 420.496094 196.375 419.867188 195.480469 418.878906 194.867188 C 417.894531 194.253906 416.839844 193.953125 415.71875 193.953125 C 414.613281 193.953125 413.617188 194.246094 412.757812 194.835938 C 411.898438 195.425781 411.457031 196.257812 411.457031 197.324219 C 411.457031 198.828125 412.554688 199.84375 414.753906 200.367188 L 418.542969 201.257812 C 422.011719 202.085938 423.738281 203.957031 423.738281 206.855469 C 423.738281 208.605469 423.089844 210.0625 421.789062 211.230469 C 420.488281 212.394531 418.65625 212.972656 416.285156 212.972656 C 412.09375 212.972656 409.320312 211.042969 407.972656 207.191406 " clip-rule="nonzero"/></clipPath><clipPath id="4c8b7a4e4c"><path d="M 425.273438 191.820312 L 441.125 191.820312 L 441.125 213 L 425.273438 213 Z M 425.273438 191.820312 " clip-rule="nonzero"/></clipPath><clipPath id="e9a3412a02"><path d="M 425.277344 207.199219 L 427.566406 206.675781 C 428.484375 209.441406 430.480469 210.820312 433.554688 210.820312 C 435.160156 210.820312 436.363281 210.472656 437.179688 209.792969 C 437.996094 209.113281 438.398438 208.203125 438.398438 207.058594 C 438.398438 206.191406 438.09375 205.496094 437.472656 204.972656 C 436.851562 204.449219 436.140625 204.082031 435.324219 203.882812 L 431.265625 202.878906 C 430.21875 202.609375 429.359375 202.289062 428.6875 201.90625 C 428.015625 201.527344 427.453125 200.9375 426.984375 200.144531 C 426.511719 199.351562 426.289062 198.445312 426.289062 197.421875 C 426.289062 195.726562 426.921875 194.378906 428.203125 193.371094 C 429.480469 192.363281 431.125 191.875 433.121094 191.875 C 436.804688 191.875 439.226562 193.542969 440.378906 196.882812 L 438.078125 197.566406 C 437.808594 196.375 437.179688 195.480469 436.191406 194.867188 C 435.207031 194.253906 434.152344 193.953125 433.03125 193.953125 C 431.925781 193.953125 430.929688 194.246094 430.070312 194.835938 C 429.210938 195.425781 428.769531 196.257812 428.769531 197.324219 C 428.769531 198.828125 429.867188 199.84375 432.066406 200.367188 L 435.855469 201.257812 C 439.324219 202.085938 441.050781 203.957031 441.050781 206.855469 C 441.050781 208.605469 440.402344 210.0625 439.101562 211.230469 C 437.800781 212.394531 435.96875 212.972656 433.597656 212.972656 C 429.40625 212.972656 426.632812 211.042969 425.285156 207.191406 " clip-rule="nonzero"/></clipPath><clipPath id="ce549d0c85"><path d="M 269 12.007812 L 316.472656 12.007812 L 316.472656 92.226562 L 269 92.226562 Z M 269 12.007812 " clip-rule="nonzero"/></clipPath><clipPath id="d237b60c54"><path d="M 309.253906 84.378906 L 309.253906 92.03125 L 279.34375 92.03125 C 272.625 92.03125 269.265625 89.234375 269.265625 83.652344 L 269.265625 53.683594 L 280.070312 53.683594 L 280.070312 79.007812 C 280.070312 80.839844 281.308594 81.761719 283.800781 81.761719 L 298.457031 81.761719 L 298.457031 12.324219 L 309.253906 12.324219 L 309.253906 74.097656 L 316.121094 74.097656 L 316.121094 84.371094 Z M 309.253906 84.378906 " clip-rule="nonzero"/></clipPath><clipPath id="9d08323687"><path d="M 314.191406 45.84375 L 347.648438 45.84375 L 347.648438 102.492188 L 314.191406 102.492188 Z M 314.191406 45.84375 " clip-rule="nonzero"/></clipPath><clipPath id="7e342905fc"><path d="M 340.371094 100.308594 C 339.085938 101.546875 337.613281 102.167969 335.953125 102.167969 C 334.25 102.167969 332.769531 101.578125 331.507812 100.402344 C 330.242188 99.230469 329.609375 97.789062 329.609375 96.082031 C 329.609375 94.339844 330.25 92.875 331.535156 91.695312 C 332.820312 90.515625 334.292969 89.929688 335.953125 89.929688 C 337.695312 89.929688 339.191406 90.507812 340.4375 91.664062 C 341.6875 92.824219 342.300781 94.296875 342.300781 96.082031 C 342.300781 97.652344 341.65625 99.058594 340.371094 100.308594 M 325.90625 100.308594 C 324.621094 101.546875 323.171875 102.167969 321.558594 102.167969 C 319.808594 102.167969 318.328125 101.578125 317.109375 100.402344 C 315.890625 99.230469 315.277344 97.789062 315.277344 96.082031 C 315.277344 94.339844 315.898438 92.875 317.140625 91.695312 C 318.378906 90.515625 319.851562 89.929688 321.558594 89.929688 C 323.296875 89.929688 324.785156 90.507812 326.003906 91.664062 C 327.222656 92.824219 327.835938 94.296875 327.835938 96.082031 C 327.835938 97.652344 327.191406 99.058594 325.90625 100.308594 M 314.359375 84.378906 L 314.359375 74.097656 L 331.761719 74.097656 L 331.761719 45.960938 L 342.5625 45.960938 L 342.5625 74.097656 L 347.472656 74.097656 L 347.472656 84.378906 Z M 314.359375 84.378906 " clip-rule="nonzero"/></clipPath><clipPath id="7cf894ef82"><path d="M 345.75 19 L 414.941406 19 L 414.941406 84.621094 L 345.75 84.621094 Z M 345.75 19 " clip-rule="nonzero"/></clipPath><clipPath id="d7266d2d48"><path d="M 345.769531 84.378906 L 345.769531 74.097656 L 398.710938 74.097656 L 398.710938 62.714844 C 398.710938 58.699219 397.050781 56.695312 393.738281 56.695312 L 352.378906 56.695312 L 352.378906 45.960938 L 385.425781 19.199219 L 403.621094 19.199219 L 371.097656 45.960938 L 396.027344 45.960938 C 404.964844 45.960938 409.445312 49.847656 409.445312 57.609375 L 409.445312 74.097656 L 414.8125 74.097656 L 414.8125 84.371094 Z M 345.769531 84.378906 " clip-rule="nonzero"/></clipPath><clipPath id="5dc21f3aec"><path d="M 413 12.765625 L 472 12.765625 L 472 84.621094 L 413 84.621094 Z M 413 12.765625 " clip-rule="nonzero"/></clipPath><clipPath id="87ed7a4d01"><path d="M 455.648438 35.683594 C 454.339844 36.820312 452.839844 37.386719 451.132812 37.386719 C 449.390625 37.386719 447.917969 36.820312 446.714844 35.683594 C 445.511719 34.546875 444.914062 33.132812 444.914062 31.429688 C 444.914062 29.769531 445.503906 28.3125 446.679688 27.042969 C 448.121094 25.859375 449.601562 25.277344 451.125 25.277344 C 452.914062 25.277344 454.421875 25.851562 455.640625 27.011719 C 456.859375 28.171875 457.472656 29.644531 457.472656 31.429688 C 457.472656 32.953125 456.859375 34.375 455.640625 35.683594 M 448.179688 23.3125 C 446.828125 24.449219 445.324219 25.015625 443.667969 25.015625 C 441.925781 25.015625 440.4375 24.449219 439.21875 23.3125 C 438 22.175781 437.386719 20.738281 437.386719 18.992188 C 437.386719 17.332031 438.023438 15.894531 439.285156 14.667969 C 440.683594 13.449219 442.140625 12.839844 443.667969 12.839844 C 445.453125 12.839844 446.960938 13.414062 448.179688 14.574219 C 449.398438 15.730469 450.011719 17.203125 450.011719 18.992188 C 450.011719 20.558594 449.398438 22.003906 448.179688 23.3125 M 440.527344 35.683594 C 439.21875 36.820312 437.714844 37.386719 436.011719 37.386719 C 434.261719 37.386719 432.796875 36.820312 431.59375 35.683594 C 430.390625 34.546875 429.792969 33.132812 429.792969 31.429688 C 429.792969 29.769531 430.40625 28.3125 431.625 27.042969 C 433.066406 25.859375 434.523438 25.277344 436.011719 25.277344 C 437.796875 25.277344 439.316406 25.851562 440.554688 27.011719 C 441.796875 28.171875 442.417969 29.644531 442.417969 31.429688 C 442.417969 32.953125 441.78125 34.375 440.519531 35.683594 M 413.03125 84.371094 L 413.03125 74.097656 L 422.585938 74.097656 L 422.585938 45.828125 L 433.320312 45.828125 L 433.320312 74.097656 L 439.40625 74.097656 L 439.40625 45.828125 L 450.265625 45.828125 L 450.265625 74.097656 L 456.226562 74.097656 L 456.226562 45.828125 L 467.027344 45.828125 L 467.027344 74.097656 L 471.996094 74.097656 L 471.996094 84.371094 Z M 413.03125 84.371094 " clip-rule="nonzero"/></clipPath><clipPath id="6d8591fa20"><path d="M 470.070312 25 L 498.585938 25 L 498.585938 84.621094 L 470.070312 84.621094 Z M 470.070312 25 " clip-rule="nonzero"/></clipPath><clipPath id="705d3fa973"><path d="M 496.285156 35.683594 C 494.976562 36.820312 493.46875 37.386719 491.769531 37.386719 C 490.027344 37.386719 488.554688 36.820312 487.351562 35.683594 C 486.148438 34.546875 485.550781 33.132812 485.550781 31.429688 C 485.550781 29.769531 486.164062 28.3125 487.382812 27.042969 C 488.78125 25.859375 490.238281 25.277344 491.761719 25.277344 C 493.550781 25.277344 495.066406 25.851562 496.308594 27.011719 C 497.546875 28.171875 498.167969 29.644531 498.167969 31.429688 C 498.167969 32.953125 497.535156 34.375 496.269531 35.683594 M 481.214844 35.683594 C 479.863281 36.820312 478.335938 37.386719 476.632812 37.386719 C 474.890625 37.386719 473.417969 36.820312 472.214844 35.683594 C 471.011719 34.546875 470.414062 33.132812 470.414062 31.429688 C 470.414062 29.769531 471.027344 28.3125 472.246094 27.042969 C 473.6875 25.859375 475.144531 25.277344 476.625 25.277344 C 478.410156 25.277344 479.929688 25.851562 481.175781 27.011719 C 482.425781 28.171875 483.039062 29.644531 483.039062 31.429688 C 483.039062 32.953125 482.425781 34.375 481.207031 35.683594 M 470.277344 84.371094 L 470.277344 74.097656 L 487.6875 74.097656 L 487.6875 45.960938 L 498.492188 45.960938 L 498.492188 84.378906 Z M 470.277344 84.371094 " clip-rule="nonzero"/></clipPath><clipPath id="ac1e7c1489"><path d="M 413.921875 119.03125 L 458.972656 119.03125 L 458.972656 183.351562 L 413.921875 183.351562 Z M 413.921875 119.03125 " clip-rule="nonzero"/></clipPath><clipPath id="8b01df3281"><path d="M 413.976562 119.085938 L 424.984375 119.085938 L 424.984375 165.613281 L 445.722656 137.4375 L 458.847656 137.4375 L 441.871094 160.378906 L 458.484375 183.320312 L 445.445312 183.320312 L 435.355469 169.28125 L 424.984375 183.320312 L 413.976562 183.320312 Z M 413.976562 119.085938 " clip-rule="nonzero"/></clipPath><clipPath id="2bae467b74"><path d="M 456.421875 136.597656 L 504.308594 136.597656 L 504.308594 184.199219 L 456.421875 184.199219 Z M 456.421875 136.597656 " clip-rule="nonzero"/></clipPath><clipPath id="c4a1e92f91"><path d="M 491.882812 153.957031 C 489.953125 149.464844 485.828125 146.894531 480.320312 146.894531 C 474.90625 146.894531 470.773438 149.464844 468.851562 153.957031 Z M 490.695312 169.09375 L 502.714844 169.09375 C 499.6875 178.363281 491.515625 184.144531 480.414062 184.144531 C 466.191406 184.144531 456.652344 174.597656 456.652344 160.378906 C 456.652344 146.25 466.199219 136.792969 480.414062 136.792969 C 494.632812 136.792969 504.089844 146.242188 504.089844 160.378906 C 504.089844 161.664062 504 162.855469 503.902344 164.050781 L 468.023438 164.050781 C 469.21875 170.382812 473.800781 174.050781 480.320312 174.050781 C 484.910156 174.050781 488.488281 172.308594 490.6875 169.09375 " clip-rule="nonzero"/></clipPath><clipPath id="93f3ab65eb"><path d="M 507.707031 136.597656 L 555.59375 136.597656 L 555.59375 184.199219 L 507.707031 184.199219 Z M 507.707031 136.597656 " clip-rule="nonzero"/></clipPath><clipPath id="9e63f753f7"><path d="M 543.179688 153.957031 C 541.25 149.464844 537.125 146.894531 531.613281 146.894531 C 526.203125 146.894531 522.066406 149.464844 520.148438 153.957031 Z M 541.988281 169.09375 L 554.011719 169.09375 C 550.984375 178.363281 542.8125 184.144531 531.710938 184.144531 C 517.484375 184.144531 507.949219 174.597656 507.949219 160.378906 C 507.949219 146.25 517.492188 136.792969 531.710938 136.792969 C 545.929688 136.792969 555.386719 146.242188 555.386719 160.378906 C 555.386719 161.664062 555.296875 162.855469 555.199219 164.050781 L 519.316406 164.050781 C 520.511719 170.382812 525.097656 174.050781 531.613281 174.050781 C 536.203125 174.050781 539.785156 172.308594 541.984375 169.09375 " clip-rule="nonzero"/></clipPath><clipPath id="83ce8c3b21"><path d="M 559.601562 119.085938 L 570.613281 119.085938 L 570.613281 183.320312 L 559.601562 183.320312 Z M 559.601562 119.085938 " clip-rule="nonzero"/></clipPath></defs><g clip-path="url(#9ee6e75b52)"><g clip-path="url(#757c2056c0)"><path fill="#d22a2a" d="M 0.949219 0 L 169.488281 0 L 169.488281 225.820312 L 0.949219 225.820312 Z M 0.949219 0 " fill-opacity="1" fill-rule="nonzero"/></g></g><g clip-path="url(#e29e817058)"><g clip-path="url(#254cf22cc6)"><path fill="#057560" d="M 0.949219 0 L 169.488281 0 L 169.488281 225.820312 L 0.949219 225.820312 Z M 0.949219 0 " fill-opacity="1" fill-rule="nonzero"/></g></g><g clip-path="url(#4716d86b5b)"><g clip-path="url(#97f0ba38f7)"><path fill="#057560" d="M 0.949219 0 L 169.488281 0 L 169.488281 225.820312 L 0.949219 225.820312 Z M 0.949219 0 " fill-opacity="1" fill-rule="nonzero"/></g></g><g clip-path="url(#0096376310)"><g clip-path="url(#62527a36b5)"><path fill="#d22a2a" d="M 0.949219 0 L 169.488281 0 L 169.488281 225.820312 L 0.949219 225.820312 Z M 0.949219 0 " fill-opacity="1" fill-rule="nonzero"/></g></g><g clip-path="url(#2f4b5d99eb)"><path fill="#057560" d="M 192.117188 115.347656 L 378.273438 115.347656 L 378.273438 187.882812 L 192.117188 187.882812 Z M 192.117188 115.347656 " fill-opacity="1" fill-rule="nonzero"/></g><g clip-path="url(#d5755f6253)"><g clip-path="url(#a5de04bd59)"><path fill="#057560" d="M 192.117188 115.347656 L 378.273438 115.347656 L 378.273438 187.882812 L 192.117188 187.882812 Z M 192.117188 115.347656 " fill-opacity="1" fill-rule="nonzero"/></g></g><g clip-path="url(#f4225a986c)"><g clip-path="url(#4c4ef55b99)"><path fill="#057560" d="M 192.117188 115.347656 L 378.273438 115.347656 L 378.273438 187.882812 L 192.117188 187.882812 Z M 192.117188 115.347656 " fill-opacity="1" fill-rule="nonzero"/></g></g><g clip-path="url(#facd729022)"><g clip-path="url(#e5d7a8895a)"><path fill="#057560" d="M 192.117188 115.347656 L 378.273438 115.347656 L 378.273438 187.882812 L 192.117188 187.882812 Z M 192.117188 115.347656 " fill-opacity="1" fill-rule="nonzero"/></g></g><g clip-path="url(#a013b28409)"><path fill="#057560" d="M 382.867188 155.332031 L 405.707031 155.332031 L 405.707031 163.589844 L 382.867188 163.589844 Z M 382.867188 155.332031 " fill-opacity="1" fill-rule="nonzero"/></g><g clip-path="url(#68dc28e0fb)"><path fill="#057560" d="M 321.679688 188.136719 L 444.808594 188.136719 L 444.808594 216.714844 L 321.679688 216.714844 Z M 321.679688 188.136719 " fill-opacity="1" fill-rule="nonzero"/></g><g clip-path="url(#e2a31dce2b)"><g clip-path="url(#2e450fa577)"><path fill="#057560" d="M 321.679688 188.136719 L 444.808594 188.136719 L 444.808594 216.714844 L 321.679688 216.714844 Z M 321.679688 188.136719 " fill-opacity="1" fill-rule="nonzero"/></g></g><g clip-path="url(#49bbc348e3)"><g clip-path="url(#c0810bd2bb)"><path fill="#057560" d="M 321.679688 188.136719 L 444.808594 188.136719 L 444.808594 216.714844 L 321.679688 216.714844 Z M 321.679688 188.136719 " fill-opacity="1" fill-rule="nonzero"/></g></g><g clip-path="url(#824f107668)"><g clip-path="url(#9d8ea88bf9)"><path fill="#057560" d="M 321.679688 188.136719 L 444.808594 188.136719 L 444.808594 216.714844 L 321.679688 216.714844 Z M 321.679688 188.136719 " fill-opacity="1" fill-rule="nonzero"/></g></g><g clip-path="url(#80627a1b52)"><path fill="#057560" d="M 321.679688 188.136719 L 444.808594 188.136719 L 444.808594 216.714844 L 321.679688 216.714844 Z M 321.679688 188.136719 " fill-opacity="1" fill-rule="nonzero"/></g><g clip-path="url(#083b652a38)"><g clip-path="url(#7f791afc6f)"><path fill="#057560" d="M 321.679688 188.136719 L 444.808594 188.136719 L 444.808594 216.714844 L 321.679688 216.714844 Z M 321.679688 188.136719 " fill-opacity="1" fill-rule="nonzero"/></g></g><g clip-path="url(#4c8b7a4e4c)"><g clip-path="url(#e9a3412a02)"><path fill="#057560" d="M 321.679688 188.136719 L 444.808594 188.136719 L 444.808594 216.714844 L 321.679688 216.714844 Z M 321.679688 188.136719 " fill-opacity="1" fill-rule="nonzero"/></g></g><g clip-path="url(#ce549d0c85)"><g clip-path="url(#d237b60c54)"><path fill="#057560" d="M 265.527344 8.585938 L 502.386719 8.585938 L 502.386719 105.914062 L 265.527344 105.914062 Z M 265.527344 8.585938 " fill-opacity="1" fill-rule="nonzero"/></g></g><g clip-path="url(#9d08323687)"><g clip-path="url(#7e342905fc)"><path fill="#057560" d="M 265.527344 8.585938 L 502.386719 8.585938 L 502.386719 105.914062 L 265.527344 105.914062 Z M 265.527344 8.585938 " fill-opacity="1" fill-rule="nonzero"/></g></g><g clip-path="url(#7cf894ef82)"><g clip-path="url(#d7266d2d48)"><path fill="#057560" d="M 265.527344 8.585938 L 502.386719 8.585938 L 502.386719 105.914062 L 265.527344 105.914062 Z M 265.527344 8.585938 " fill-opacity="1" fill-rule="nonzero"/></g></g><g clip-path="url(#5dc21f3aec)"><g clip-path="url(#87ed7a4d01)"><path fill="#057560" d="M 265.527344 8.585938 L 502.386719 8.585938 L 502.386719 105.914062 L 265.527344 105.914062 Z M 265.527344 8.585938 " fill-opacity="1" fill-rule="nonzero"/></g></g><g clip-path="url(#6d8591fa20)"><g clip-path="url(#705d3fa973)"><path fill="#057560" d="M 265.527344 8.585938 L 502.386719 8.585938 L 502.386719 105.914062 L 265.527344 105.914062 Z M 265.527344 8.585938 " fill-opacity="1" fill-rule="nonzero"/></g></g><g clip-path="url(#ac1e7c1489)"><g clip-path="url(#8b01df3281)"><path fill="#057560" d="M 410.238281 115.347656 L 574.292969 115.347656 L 574.292969 187.882812 L 410.238281 187.882812 Z M 410.238281 115.347656 " fill-opacity="1" fill-rule="nonzero"/></g></g><g clip-path="url(#2bae467b74)"><g clip-path="url(#c4a1e92f91)"><path fill="#057560" d="M 410.238281 115.347656 L 574.292969 115.347656 L 574.292969 187.882812 L 410.238281 187.882812 Z M 410.238281 115.347656 " fill-opacity="1" fill-rule="nonzero"/></g></g><g clip-path="url(#93f3ab65eb)"><g clip-path="url(#9e63f753f7)"><path fill="#057560" d="M 410.238281 115.347656 L 574.292969 115.347656 L 574.292969 187.882812 L 410.238281 187.882812 Z M 410.238281 115.347656 " fill-opacity="1" fill-rule="nonzero"/></g></g><g clip-path="url(#83ce8c3b21)"><path fill="#057560" d="M 410.238281 115.347656 L 574.292969 115.347656 L 574.292969 187.882812 L 410.238281 187.882812 Z M 410.238281 115.347656 " fill-opacity="1" fill-rule="nonzero"/></g></svg>